<?xml version="1.0" standalone="no"?>
<!DOCTYPE svg PUBLIC "-//W3C//DTD SVG 20010904//EN"
 "http://www.w3.org/TR/2001/REC-SVG-20010904/DTD/svg10.dtd">
<svg version="1.0" xmlns="http://www.w3.org/2000/svg"
 width="922.000000pt" height="872.000000pt" viewBox="0 0 922.000000 872.000000"
 preserveAspectRatio="xMidYMid meet">

<g transform="translate(0.000000,872.000000) scale(0.100000,-0.100000)"
fill="#000000" stroke="none">
<path d="M3455 8601 c-60 -27 -119 -100 -150 -184 -27 -72 -30 -82 -57 -147
-8 -19 -21 -51 -28 -70 -13 -38 -21 -57 -42 -110 -8 -19 -21 -51 -28 -70 -14
-41 -23 -65 -37 -100 -6 -14 -18 -45 -28 -70 -10 -25 -22 -56 -28 -70 -5 -14
-13 -34 -17 -45 -10 -27 -40 -104 -52 -135 -6 -14 -14 -33 -19 -42 -5 -10 -9
-23 -9 -29 0 -6 -7 -27 -16 -47 -20 -46 -29 -68 -44 -112 -7 -19 -20 -51 -28
-70 -8 -19 -17 -44 -22 -55 -4 -11 -12 -31 -18 -45 -6 -14 -14 -36 -18 -50 -3
-14 -16 -45 -26 -70 -11 -25 -27 -59 -34 -77 -8 -17 -14 -36 -14 -42 0 -6 -4
-19 -9 -29 -5 -9 -13 -28 -19 -42 -5 -14 -16 -41 -24 -60 -8 -19 -21 -51 -28
-70 -13 -38 -21 -57 -42 -110 -8 -19 -21 -51 -28 -70 -7 -19 -18 -48 -25 -65
-8 -16 -23 -57 -35 -90 -12 -33 -28 -73 -35 -90 -7 -16 -52 -131 -100 -255
-48 -124 -93 -238 -100 -255 -7 -16 -18 -46 -25 -65 -15 -40 -31 -80 -53 -130
-9 -19 -25 -62 -37 -95 -12 -33 -28 -75 -36 -92 -8 -18 -21 -51 -29 -73 -8
-22 -21 -55 -29 -73 -8 -17 -24 -59 -36 -92 -12 -33 -27 -73 -34 -90 -13 -29
-40 -98 -56 -140 -4 -11 -12 -31 -18 -45 -6 -14 -34 -83 -62 -155 -50 -127
-57 -144 -78 -195 -5 -14 -16 -41 -22 -60 -7 -19 -20 -51 -28 -70 -15 -36 -18
-44 -47 -120 -10 -25 -21 -54 -25 -65 -4 -11 -15 -37 -24 -57 -9 -21 -23 -56
-31 -78 -8 -22 -21 -55 -28 -73 -8 -17 -20 -48 -27 -67 -13 -34 -24 -63 -54
-132 -7 -18 -33 -82 -56 -143 -23 -60 -49 -126 -57 -145 -15 -36 -18 -41 -48
-120 -30 -78 -33 -84 -48 -120 -8 -19 -34 -84 -57 -145 -23 -60 -49 -126 -57
-145 -15 -36 -18 -41 -48 -120 -18 -45 -31 -78 -46 -115 -5 -11 -31 -78 -59
-150 -28 -71 -55 -140 -60 -152 -10 -24 -17 -39 -45 -113 -10 -25 -21 -54 -25
-65 -4 -11 -15 -36 -24 -57 -9 -20 -16 -39 -16 -42 0 -3 -9 -28 -21 -54 -12
-26 -25 -56 -29 -67 -17 -43 -43 -111 -50 -130 -4 -11 -12 -31 -18 -45 -6 -14
-30 -72 -52 -130 -22 -58 -45 -115 -50 -127 -6 -13 -14 -33 -19 -45 -4 -13
-13 -34 -19 -48 -6 -14 -30 -72 -52 -130 -40 -103 -45 -115 -70 -175 -25 -60
-30 -72 -70 -175 -22 -58 -45 -115 -50 -127 -20 -45 -29 -69 -46 -118 -10 -27
-21 -54 -24 -60 -4 -5 -22 -48 -40 -95 -17 -47 -38 -98 -45 -115 -7 -16 -18
-46 -25 -65 -12 -33 -22 -57 -49 -123 -14 -34 -15 -144 -1 -152 5 -3 10 -14
10 -24 0 -26 61 -92 111 -121 l44 -25 683 -3 c458 -2 695 1 722 8 57 15 118
67 151 128 25 46 29 64 29 131 0 91 -20 142 -80 200 -38 37 -133 91 -159 91
-7 0 -42 14 -79 32 -75 36 -156 111 -192 178 -23 40 -25 57 -25 160 0 86 4
124 16 150 33 70 59 129 59 135 0 3 10 27 21 53 41 92 49 110 49 116 0 3 10
28 21 54 41 92 49 110 49 116 0 3 10 28 21 54 12 26 28 63 36 82 8 19 18 44
23 55 4 11 17 41 29 67 12 26 21 51 21 54 0 7 25 66 51 117 10 22 19 43 19 49
0 5 6 24 14 41 36 83 47 110 91 217 52 128 63 154 94 222 12 26 21 49 21 53 0
3 10 27 21 53 12 26 28 63 36 82 8 19 18 44 23 55 4 11 17 41 29 67 12 26 21
51 21 54 0 3 7 22 16 42 9 21 20 46 24 57 4 11 15 38 25 60 9 22 20 49 25 60
4 11 17 41 29 67 12 26 21 51 21 54 0 6 8 24 49 116 11 26 21 51 21 54 0 3 7
22 16 42 9 21 20 46 24 57 26 66 54 134 65 160 7 17 23 55 35 85 12 30 28 69
35 85 7 17 23 55 35 85 12 30 28 69 35 85 7 17 20 50 30 75 10 25 23 59 30 75
11 26 41 100 65 160 4 11 15 36 24 57 9 20 16 39 16 42 0 3 10 28 21 54 41 92
49 110 49 116 0 3 10 28 21 54 41 92 49 110 49 116 0 3 9 28 21 54 35 79 38
85 60 142 11 30 26 69 33 85 7 17 21 50 31 75 10 25 24 60 32 77 7 18 20 51
28 73 14 38 20 55 59 142 9 20 16 39 16 42 0 3 9 28 21 54 12 26 25 56 29 67
4 11 16 40 25 65 10 25 26 64 36 87 11 24 19 46 19 49 0 3 7 22 16 42 9 21 20
47 25 60 5 12 13 32 19 45 5 12 19 47 31 77 11 30 27 69 34 85 8 17 24 55 35
85 12 30 27 69 34 85 7 17 21 50 31 75 10 25 24 60 32 77 7 18 20 51 28 73 8
22 22 57 31 78 37 84 44 100 44 106 0 3 10 28 21 54 27 60 43 98 59 142 60
167 111 237 198 276 68 31 120 30 187 -2 75 -35 118 -87 165 -199 4 -11 17
-41 29 -67 12 -26 21 -51 21 -54 0 -6 4 -15 48 -114 10 -25 23 -56 27 -70 4
-14 21 -53 36 -88 16 -34 29 -65 29 -68 0 -6 8 -25 49 -116 11 -26 21 -51 21
-54 0 -3 7 -22 16 -42 9 -21 20 -46 24 -57 4 -11 15 -38 25 -60 9 -22 20 -49
24 -60 10 -24 23 -55 46 -110 9 -22 20 -49 25 -60 4 -11 17 -41 29 -67 12 -26
21 -51 21 -54 0 -3 7 -22 16 -42 24 -53 39 -90 64 -152 12 -30 31 -74 41 -97
11 -24 19 -46 19 -49 0 -6 8 -24 49 -116 11 -26 21 -51 21 -54 0 -3 7 -22 16
-42 9 -21 23 -53 31 -72 60 -140 124 -243 193 -310 106 -103 204 -156 388
-212 50 -15 290 -11 353 6 62 16 172 56 179 65 3 3 22 15 43 26 21 11 47 28
57 38 11 9 22 17 26 17 14 0 210 185 574 544 494 486 671 656 685 656 13 0 69
-19 120 -40 11 -5 60 -14 108 -20 245 -33 531 84 677 276 26 34 90 133 90 140
0 3 7 22 16 42 50 114 59 161 59 307 0 120 -6 157 -34 230 -110 281 -310 448
-601 501 -128 23 -214 15 -360 -34 -201 -68 -343 -195 -437 -392 -62 -127 -89
-329 -62 -447 21 -88 41 -158 55 -190 8 -17 14 -37 14 -45 0 -19 -968 -983
-1007 -1002 -46 -23 -99 -20 -149 9 -51 30 -73 59 -104 140 -13 33 -29 76 -37
95 -22 52 -30 71 -43 110 -7 19 -20 51 -28 70 -8 19 -18 44 -22 55 -4 11 -14
36 -22 55 -8 19 -21 51 -28 70 -7 19 -18 49 -25 65 -7 17 -52 131 -100 255
-48 124 -93 239 -100 255 -7 17 -18 46 -25 65 -7 19 -20 51 -28 70 -21 53 -29
72 -42 110 -7 19 -20 51 -28 70 -21 53 -29 72 -42 110 -7 19 -20 51 -28 70
-15 36 -18 44 -47 120 -29 76 -32 84 -47 120 -8 19 -21 51 -28 70 -13 39 -21
58 -43 110 -8 19 -24 62 -37 95 -12 33 -28 74 -35 90 -7 17 -34 86 -60 155
-26 69 -53 139 -60 155 -7 17 -25 60 -39 98 -14 37 -32 82 -40 100 -8 17 -26
66 -41 107 -15 41 -32 79 -36 84 -5 6 -9 16 -9 24 0 30 -73 163 -103 188 -77
65 -58 64 -642 64 -493 0 -533 -2 -570 -19z m4493 -1587 c136 -63 219 -222
181 -343 -51 -160 -162 -250 -308 -251 -66 0 -109 14 -179 57 -63 40 -102 97
-127 189 -16 58 -16 74 -5 118 29 115 79 181 175 230 72 37 183 37 263 0z"/>
<path d="M3951 5829 c-48 -19 -100 -71 -124 -122 -18 -39 -28 -90 -41 -207 -9
-85 -21 -186 -27 -225 -43 -283 -60 -384 -75 -440 -7 -27 -16 -61 -19 -75 -12
-45 -36 -125 -45 -145 -4 -11 -14 -36 -21 -55 -15 -43 -130 -283 -139 -290 -3
-3 -14 -22 -23 -42 -9 -20 -33 -65 -53 -100 -20 -35 -48 -83 -62 -107 -41 -73
-76 -131 -130 -218 -29 -46 -52 -85 -52 -87 0 -14 -550 -858 -571 -876 -3 -3
-38 -54 -79 -115 -40 -60 -87 -128 -103 -150 -43 -59 -57 -101 -57 -165 0 -71
7 -86 103 -232 42 -64 77 -120 77 -123 0 -3 12 -24 27 -48 39 -62 97 -169 152
-282 73 -150 121 -254 121 -261 0 -3 7 -22 16 -42 9 -21 20 -46 24 -57 4 -11
15 -36 24 -57 9 -20 16 -41 16 -47 0 -6 5 -20 10 -31 6 -11 15 -29 20 -40 6
-11 10 -28 10 -38 0 -10 4 -22 8 -27 4 -6 16 -37 26 -70 10 -33 22 -69 27 -80
4 -11 15 -47 25 -80 9 -33 20 -69 24 -80 4 -11 13 -38 19 -60 6 -22 18 -65 26
-95 17 -57 32 -113 45 -165 5 -16 13 -46 18 -65 5 -19 17 -71 27 -115 24 -116
36 -157 58 -188 40 -59 10 -57 797 -57 640 0 726 2 756 16 37 18 68 62 77 114
6 36 51 221 67 275 4 17 18 68 30 115 11 47 25 94 29 105 5 11 13 36 18 55 31
109 46 157 54 172 5 10 9 25 9 33 0 8 4 23 9 33 6 9 17 42 26 72 9 30 21 65
26 78 5 12 13 32 18 45 61 161 117 302 136 342 13 28 44 95 69 150 26 55 52
109 58 120 6 11 26 47 43 80 65 122 89 163 177 294 158 238 158 263 -10 505
-111 159 -118 170 -168 246 -20 30 -39 57 -43 60 -8 6 -265 391 -270 405 -2 6
-7 12 -10 15 -8 6 -168 256 -199 311 -11 19 -58 98 -106 177 -47 78 -86 145
-86 148 0 3 -9 19 -21 35 -30 42 -222 424 -243 484 -10 28 -22 61 -28 75 -6
14 -14 34 -19 45 -33 78 -75 285 -110 540 -22 161 -28 205 -38 310 -18 185
-40 231 -134 285 -42 24 -63 30 -112 29 -33 0 -71 -5 -84 -10z m122 -2264 c19
-8 45 -26 56 -41 21 -26 21 -33 21 -613 l0 -586 46 -30 c52 -34 102 -92 129
-150 28 -57 27 -204 0 -260 -24 -50 -31 -59 -78 -106 -63 -61 -118 -82 -217
-82 -74 1 -92 4 -135 28 -67 36 -130 98 -157 154 -33 69 -32 207 2 276 29 59
93 126 143 150 l36 17 3 594 3 593 23 23 c12 13 37 28 55 35 17 6 33 12 33 12
1 1 17 -6 37 -14z"/>
<path d="M8195 4838 c-22 -6 -48 -14 -57 -19 -10 -5 -25 -9 -34 -9 -21 0 -147
-64 -192 -98 -71 -52 -132 -115 -182 -188 -27 -40 -50 -75 -50 -78 0 -3 -11
-29 -25 -58 -14 -28 -25 -57 -25 -64 0 -6 -7 -15 -16 -18 -9 -3 -226 -6 -482
-7 -257 0 -492 -5 -522 -10 -117 -18 -130 -21 -136 -30 -3 -5 -12 -9 -19 -9
-21 0 -121 -48 -185 -88 -137 -87 -280 -265 -334 -417 -10 -27 -22 -59 -26
-70 -31 -82 -46 -367 -20 -414 5 -11 10 -33 10 -50 0 -16 4 -32 9 -35 4 -3 11
-21 14 -39 3 -18 15 -55 27 -83 12 -27 29 -65 37 -84 8 -19 18 -44 23 -55 4
-11 15 -36 23 -55 8 -19 27 -64 42 -100 15 -36 36 -84 46 -107 10 -23 19 -44
19 -48 0 -3 10 -27 21 -53 41 -92 49 -110 49 -116 0 -6 13 -37 66 -154 13 -29
24 -57 24 -62 0 -5 9 -25 20 -45 11 -20 20 -40 20 -45 0 -5 12 -35 26 -67 42
-92 54 -121 54 -127 0 -3 14 -35 30 -71 17 -36 30 -68 30 -71 0 -6 19 -50 56
-130 13 -28 24 -54 24 -58 0 -3 10 -28 21 -54 27 -60 43 -98 59 -142 7 -19 18
-48 25 -65 16 -36 67 -175 83 -226 24 -73 12 -151 -40 -266 -7 -16 -42 -57
-78 -93 -67 -68 -127 -102 -239 -140 -94 -31 -140 -68 -190 -154 -19 -33 -23
-55 -24 -122 0 -70 4 -88 28 -132 31 -58 53 -80 110 -114 l40 -23 699 -3 c779
-3 768 -4 840 64 55 52 76 102 76 182 0 63 -6 89 -40 170 -6 12 -14 33 -20 47
-5 14 -14 35 -20 48 -5 12 -28 69 -50 127 -22 58 -46 116 -52 130 -6 14 -14
34 -18 45 -5 11 -15 36 -24 57 -9 20 -16 41 -16 47 0 6 -4 19 -9 29 -15 27
-36 78 -81 197 -46 119 -57 145 -88 216 -12 26 -24 60 -28 75 -4 16 -10 34
-14 39 -4 6 -17 37 -29 70 -13 33 -29 76 -38 95 -8 19 -19 44 -23 55 -35 89
-44 114 -57 142 -7 18 -20 51 -28 73 -8 22 -22 57 -31 78 -9 20 -20 46 -24 57
-4 11 -15 40 -25 65 -10 25 -21 54 -25 65 -4 11 -15 36 -24 57 -9 20 -16 39
-16 42 0 3 -9 28 -21 54 -12 26 -25 56 -29 67 -4 11 -16 40 -25 65 -10 25 -24
60 -32 77 -7 18 -20 51 -28 73 -8 22 -22 57 -31 78 -9 20 -20 46 -24 57 -4 11
-15 40 -25 65 -10 25 -21 54 -25 65 -4 11 -15 36 -24 57 -9 20 -16 39 -16 42
0 3 -9 28 -21 54 -21 48 -23 53 -54 132 -29 75 -35 89 -45 113 -66 152 -130
338 -130 379 0 27 4 48 9 48 5 0 11 9 14 19 2 10 17 27 31 36 24 16 72 18 466
24 443 6 470 4 470 -29 0 -44 142 -249 203 -292 18 -12 41 -30 51 -40 11 -10
23 -18 27 -18 4 0 14 -6 21 -13 24 -24 125 -67 228 -98 60 -19 280 -19 340 0
157 47 269 112 367 213 130 133 189 266 202 454 18 252 -43 427 -208 594 -109
110 -217 170 -389 216 -60 16 -235 17 -297 2z m280 -463 c68 -32 144 -115 168
-181 46 -131 -7 -282 -127 -358 -132 -84 -283 -68 -389 42 -65 66 -87 122 -87
218 0 70 4 90 27 134 59 113 150 169 276 170 64 0 88 -5 132 -25z"/>
</g>
</svg>
